<?xml version="1.0" standalone="no"?>
<!DOCTYPE svg PUBLIC "-//W3C//DTD SVG 20010904//EN"
 "http://www.w3.org/TR/2001/REC-SVG-20010904/DTD/svg10.dtd">
<svg version="1.0" xmlns="http://www.w3.org/2000/svg"
 width="800.000000pt" height="800.000000pt" viewBox="0 0 800.000000 800.000000"
 preserveAspectRatio="xMidYMid meet">
<metadata>
Created by potrace 1.14, written by Peter Selinger 2001-2017
</metadata>
<g transform="translate(0.000000,800.000000) scale(0.100000,-0.100000)"
fill="#000000" stroke="none">
<path d="M4247 6324 c-1 -1 -33 -5 -70 -8 -38 -3 -71 -8 -75 -10 -4 -2 -28 -7
-52 -11 -162 -24 -414 -159 -548 -293 l-37 -37 -65 12 c-94 17 -278 10 -374
-16 -262 -70 -499 -274 -592 -512 -19 -49 -33 -70 -53 -79 -53 -24 -157 -100
-214 -156 -115 -113 -198 -257 -239 -417 -30 -113 -29 -318 0 -429 77 -287
278 -508 559 -614 34 -13 75 -26 90 -29 15 -3 39 -8 53 -12 14 -4 621 -9 1350
-10 1412 -2 1394 -3 1532 46 301 105 524 361 584 670 16 82 16 268 1 336 -53
224 -167 407 -332 530 -22 16 -42 33 -45 36 -3 3 -29 18 -57 34 -29 15 -53 33
-53 39 0 15 -87 191 -102 208 -7 7 -26 31 -43 53 -41 56 -109 119 -185 173
-36 26 -110 92 -165 147 -184 183 -383 289 -621 330 -75 12 -240 25 -247 19z
m228 -208 c224 -49 434 -174 556 -332 25 -32 62 -65 96 -84 138 -78 258 -228
304 -382 l24 -76 55 -25 c240 -111 398 -342 409 -601 1 -32 -1 -57 -6 -55 -4
2 -48 31 -98 64 -230 153 -474 264 -730 331 -64 17 -74 19 -126 28 -19 3 -61
11 -94 16 -80 15 -363 21 -450 10 -307 -38 -525 -127 -744 -303 l-75 -60 -45
17 c-157 60 -308 85 -486 80 -129 -3 -148 -5 -255 -25 -192 -37 -430 -132
-615 -247 l-80 -50 -8 26 c-4 15 -9 65 -11 112 -11 272 139 523 386 643 84 41
87 43 98 87 6 25 30 83 53 130 54 110 177 238 282 292 168 87 339 106 523 58
l92 -24 28 34 c72 87 167 168 269 228 56 33 195 88 244 98 19 3 54 10 79 14
49 9 277 6 325 -4z"/>
<path d="M5442 3340 c-5 -3 -8 -211 -8 -462 l0 -458 93 0 93 0 0 463 0 464
-85 -1 c-47 0 -89 -3 -93 -6z"/>
<path d="M7646 3340 c-1 -3 -2 -74 -1 -157 0 -84 -3 -153 -8 -153 -4 0 -18 6
-30 14 -33 21 -116 36 -169 32 -170 -16 -280 -161 -273 -358 5 -128 73 -236
180 -288 65 -31 170 -32 238 -2 56 25 62 26 62 10 0 -9 27 -14 93 -16 l92 -3
0 464 0 465 -91 -1 c-50 -1 -92 -4 -93 -7z m-70 -471 c39 -24 64 -74 64 -129
0 -81 -52 -140 -130 -148 -41 -4 -56 0 -85 19 -98 67 -87 222 18 269 45 21 88
17 133 -11z"/>
<path d="M2503 3325 c-53 -22 -73 -68 -60 -136 18 -90 164 -109 208 -26 53 98
-45 205 -148 162z"/>
<path d="M4786 3276 c-150 -51 -258 -172 -290 -327 -28 -135 5 -284 86 -383
41 -51 133 -114 197 -136 202 -68 421 1 540 169 34 48 38 61 19 61 -7 0 -48
14 -92 31 l-78 30 -42 -43 c-57 -59 -106 -81 -186 -82 -85 -1 -150 29 -194 91
-42 59 -54 97 -55 163 0 96 42 175 122 228 34 23 52 27 115 29 90 2 151 -24
203 -86 l33 -39 66 25 c36 13 77 29 92 35 l28 10 -23 40 c-30 55 -116 131
-182 163 -107 50 -247 58 -359 21z"/>
<path d="M192 3275 c-4 -5 -7 -200 -7 -432 l0 -423 98 0 97 0 0 248 0 247 112
-201 113 -201 62 -1 c35 0 66 5 71 11 6 7 46 77 90 157 95 174 123 224 128
229 2 2 3 -95 3 -215 0 -121 0 -231 0 -246 l1 -28 95 0 c92 0 95 1 96 23 3
111 3 837 -1 838 -3 1 -47 2 -98 3 l-93 2 -37 -66 c-20 -36 -48 -86 -62 -111
-91 -165 -186 -329 -190 -329 -5 0 -46 72 -145 249 -11 20 -48 86 -83 146
l-63 110 -90 0 c-50 0 -94 -4 -97 -10z"/>
<path d="M1441 3058 c-58 -22 -128 -84 -157 -139 -49 -94 -52 -241 -8 -335 32
-68 93 -130 154 -156 63 -28 169 -28 233 0 56 25 63 26 59 6 -2 -11 15 -14 93
-14 l95 0 0 320 c0 298 -1 320 -17 321 -22 1 -131 1 -157 0 -13 -1 -17 -6 -13
-22 5 -20 5 -20 -27 -1 -71 42 -175 50 -255 20z m209 -185 c83 -48 93 -178 20
-248 -40 -39 -115 -46 -163 -16 -68 41 -91 145 -48 215 43 70 121 90 191 49z"/>
<path d="M2300 3065 c-25 -8 -56 -24 -69 -36 -18 -17 -25 -19 -31 -9 -5 7 -6
19 -3 27 5 13 -3 15 -67 15 -16 0 -50 -1 -75 -1 l-45 -1 0 -320 0 -320 93 0
94 0 0 189 c1 153 4 194 17 220 25 47 61 66 125 64 l56 -1 -1 77 c-1 42 -3 84
-3 94 -1 21 -28 21 -91 2z"/>
<path d="M3035 3068 c-16 -6 -44 -21 -62 -34 -40 -30 -44 -30 -39 1 4 24 2 25
-42 26 -73 2 -134 1 -138 -4 -5 -5 -6 -82 -5 -394 l1 -243 90 0 c65 0 90 3 91
13 0 6 2 98 3 202 2 169 4 193 21 219 47 71 150 67 195 -7 18 -29 20 -52 20
-229 l0 -198 93 0 93 0 -1 238 c-1 204 -4 242 -19 274 -21 44 -76 102 -116
123 -37 19 -147 27 -185 13z"/>
<path d="M3695 3068 c-103 -22 -197 -104 -234 -203 -30 -78 -26 -196 8 -267
28 -58 99 -130 155 -157 139 -68 320 -38 421 70 64 69 67 65 -59 94 -67 15
-70 15 -90 -4 -12 -11 -32 -24 -46 -29 -31 -12 -111 -7 -138 7 -25 13 -72 69
-72 84 0 9 60 12 230 11 180 0 233 3 242 13 18 22 2 146 -28 204 -70 140 -231
213 -389 177z m176 -179 c16 -11 36 -34 44 -50 l15 -29 -145 1 c-118 0 -145 3
-145 14 0 20 65 83 92 88 42 9 109 -2 139 -24z"/>
<path d="M5932 3061 c-53 -18 -111 -57 -150 -100 -94 -104 -103 -297 -20 -414
62 -87 154 -136 265 -141 148 -7 272 65 332 194 22 46 26 69 26 145 0 84 -2
95 -34 153 -39 71 -93 121 -167 153 -65 29 -182 34 -252 10z m196 -193 c94
-58 86 -215 -15 -263 -107 -51 -216 22 -214 143 1 119 125 184 229 120z"/>
<path d="M2493 3062 l-33 -3 0 -320 0 -319 93 0 92 0 0 314 c0 173 -3 318 -7
322 -8 7 -93 11 -145 6z"/>
<path d="M6493 3062 c-22 -3 -22 -4 -21 -230 0 -195 3 -234 19 -276 20 -54 74
-109 128 -132 75 -31 179 -21 237 25 35 27 42 27 36 -4 l-4 -25 96 0 96 0 0
320 0 320 -22 1 c-46 1 -104 1 -134 0 l-31 -1 0 -200 c-1 -167 -3 -204 -17
-225 -50 -76 -152 -76 -201 -1 -13 19 -16 60 -16 225 -1 145 -4 201 -12 202
-75 3 -136 3 -154 1z"/>
<path d="M776 2078 c-101 -21 -164 -98 -167 -205 -7 -218 281 -304 396 -119
26 43 30 59 29 115 -1 116 -62 188 -177 209 -23 5 -60 4 -81 0z m134 -90 c38
-27 61 -83 56 -136 -11 -144 -210 -184 -271 -55 -39 82 -5 179 75 212 35 14
107 4 140 -21z"/>
<path d="M4345 2082 c-146 -26 -224 -153 -178 -288 61 -178 318 -190 398 -19
46 99 3 233 -93 284 -27 15 -100 28 -127 23z m90 -80 c99 -53 106 -203 12
-261 -67 -41 -152 -24 -198 40 -29 41 -31 121 -4 167 36 60 129 87 190 54z"/>
<path d="M6400 2077 c-72 -18 -112 -84 -91 -150 13 -39 35 -54 130 -87 44 -15
79 -34 88 -46 12 -20 12 -25 -9 -48 -36 -42 -108 -39 -148 5 -16 17 -65 16
-75 -2 -11 -16 57 -79 97 -90 103 -27 200 24 209 111 6 68 -30 102 -143 135
-66 19 -90 38 -86 69 7 47 98 57 137 15 17 -18 22 -19 51 -7 l32 13 -22 28
c-12 15 -30 31 -39 37 -35 18 -96 27 -131 17z"/>
<path d="M7629 2080 c-65 -18 -99 -61 -99 -126 0 -50 41 -86 125 -110 72 -21
105 -44 105 -74 0 -53 -110 -71 -156 -25 -19 19 -31 23 -54 18 -38 -7 -38 -24
0 -61 37 -38 75 -51 137 -48 93 5 152 67 139 145 -7 49 -42 76 -127 101 -84
25 -115 51 -99 81 23 42 106 48 133 9 9 -13 21 -17 40 -13 34 7 41 17 28 41
-23 43 -117 76 -172 62z"/>
<path d="M190 2074 c0 -3 35 -59 77 -126 l78 -121 0 -81 0 -81 33 -3 32 -3 1
68 c1 37 1 76 0 85 -1 9 29 63 67 120 38 57 74 113 80 125 12 22 9 23 -60 14
-3 -1 -30 -39 -60 -86 -29 -47 -56 -85 -60 -85 -3 0 -30 38 -59 85 -28 47 -54
85 -58 86 -37 5 -71 7 -71 3z"/>
<path d="M1126 2071 c-9 -14 2 -299 12 -323 16 -39 86 -86 138 -94 86 -13 185
51 199 128 3 18 5 92 3 163 l-3 130 -30 0 -30 0 -2 -100 c0 -55 -2 -121 -2
-147 -2 -83 -66 -128 -148 -106 -57 15 -67 44 -73 207 l-5 145 -28 1 c-15 1
-29 -1 -31 -4z"/>
<path d="M1578 2046 c-2 -17 -2 -111 0 -209 l3 -178 32 3 32 3 0 73 c0 79 -5
74 70 74 14 0 29 0 34 -1 5 -1 29 -35 53 -76 41 -71 44 -74 81 -75 20 0 37 2
37 4 0 2 -20 37 -45 77 -25 40 -45 76 -45 79 0 4 11 12 24 19 33 18 59 78 51
120 -8 47 -20 66 -56 92 -27 19 -45 22 -149 24 l-119 2 -3 -31z m235 -52 c20
-12 29 -60 16 -86 -5 -9 -19 -20 -31 -24 -37 -12 -148 -12 -149 0 -1 6 -2 36
-3 66 -1 45 2 56 17 60 27 7 129 -3 150 -16z"/>
<path d="M2186 2070 c-1 -3 -2 -95 -2 -205 l1 -200 143 -3 142 -3 0 31 c0 34
8 32 -142 32 l-78 0 0 178 0 178 -31 -2 c-17 0 -32 -3 -33 -6z"/>
<path d="M2550 1869 l0 -209 33 0 32 0 -1 203 c-1 111 -2 204 -3 207 0 3 -14
6 -31 6 l-30 2 0 -209z"/>
<path d="M2724 2068 c-3 -5 -6 -98 -6 -206 l-1 -197 32 -3 c36 -4 33 -17 34
176 0 61 3 112 6 111 3 0 41 -46 84 -102 127 -167 146 -187 178 -187 l29 0 0
208 0 208 -32 -1 -33 -1 0 -142 c0 -78 -2 -142 -6 -142 -5 0 -199 240 -220
273 -9 13 -58 17 -65 5z"/>
<path d="M3184 1868 l-1 -208 34 0 33 0 0 103 0 102 44 -48 c24 -26 66 -72 92
-103 47 -53 51 -55 91 -52 l42 3 -46 50 c-25 28 -65 71 -89 98 -24 26 -44 52
-44 58 0 6 36 52 80 102 43 50 77 94 75 97 -7 11 -76 5 -83 -7 -4 -6 -36 -43
-71 -82 -35 -40 -70 -79 -77 -89 -11 -14 -13 -1 -14 83 l0 101 -33 0 -33 0 0
-208z"/>
<path d="M3750 2043 l0 -32 72 -3 73 -3 -1 -172 0 -173 33 0 33 0 1 58 c0 31
0 110 -1 175 l-1 117 68 1 c37 1 71 1 75 0 4 0 7 14 5 31 l-2 33 -178 0 -177
0 0 -32z"/>
<path d="M4834 2071 c-10 -10 -3 -62 9 -60 6 1 39 1 73 0 l61 -1 1 -157 c0
-87 1 -166 1 -175 1 -13 10 -18 34 -18 l32 0 0 175 -1 175 73 0 73 0 0 33 0
32 -176 0 c-97 0 -178 -2 -180 -4z"/>
<path d="M5270 1869 l0 -209 34 0 34 0 -2 88 -1 87 113 2 112 3 0 -90 0 -90
35 0 35 0 -3 208 -2 207 -30 0 -30 0 -3 -87 -3 -88 -112 0 -112 0 1 72 c2 96
0 103 -36 104 l-30 2 0 -209z"/>
<path d="M5734 2071 c-2 -2 -4 -96 -4 -208 l0 -203 155 0 155 0 0 30 c0 34 0
34 -167 31 l-73 -1 0 60 0 60 94 -2 c51 0 97 2 103 5 5 3 9 16 8 29 -2 22 -5
23 -103 26 l-102 3 0 54 0 54 117 3 c126 3 122 1 114 56 -1 7 -289 11 -297 3z"/>
<path d="M6695 2070 c-2 -3 -3 -97 -3 -208 l1 -202 153 0 154 0 0 30 c0 29 -1
30 -52 31 -29 1 -83 0 -120 0 l-68 -1 0 60 0 60 95 -1 c52 -2 98 1 102 5 4 4
8 18 9 31 l1 25 -104 0 -103 0 0 55 c0 50 2 55 23 56 12 0 65 1 116 2 l95 2 1
28 c1 15 -1 28 -4 28 -21 4 -293 3 -296 -1z"/>
<path d="M7174 1946 c-31 -72 -71 -166 -90 -208 l-33 -78 35 0 c30 0 36 5 51
38 10 20 19 39 21 42 2 2 48 5 102 5 l99 1 17 -43 c16 -39 22 -43 52 -43 40 0
42 -9 -40 180 -102 235 -103 236 -132 236 -23 0 -30 -12 -82 -130z m125 -61
c16 -38 28 -72 25 -74 -5 -5 -125 -4 -130 2 -2 2 10 38 27 81 18 42 35 73 40
69 4 -4 21 -39 38 -78z"/>
</g>
</svg>
