<svg width="18" height="14" viewBox="0 0 18 14" fill="none" xmlns="http://www.w3.org/2000/svg">
<path d="M16.9882 5.67822L17.0163 5.68398L4.97152 5.68398L8.75795 2.1305C8.94337 1.95701 9.04507 1.72199 9.04507 1.47533C9.04507 1.22866 8.94337 0.995292 8.75795 0.821393L8.16878 0.269413C7.98351 0.0959251 7.73664 0 7.47337 0C7.20995 0 6.96293 0.09524 6.77766 0.268728L0.286979 6.34613C0.100979 6.52031 -0.000727786 6.75231 3.92069e-06 6.99911C-0.000727786 7.24728 0.100979 7.47942 0.286979 7.65332L6.77766 13.7313C6.96293 13.9046 7.20981 14 7.47337 14C7.73664 14 7.98351 13.9045 8.16878 13.7313L8.75795 13.1793C8.94337 13.0061 9.04507 12.7748 9.04507 12.5281C9.04507 12.2816 8.94337 12.0625 8.75795 11.8891L4.92878 8.31575L17.0017 8.31575C17.5441 8.31575 18 7.87792 18 7.3702V6.58951C18 6.08179 17.5307 5.67822 16.9882 5.67822Z" fill="#9CA3AF"/>
</svg>
