<svg width="80" height="48" viewBox="0 0 80 48" fill="none" xmlns="http://www.w3.org/2000/svg">
<path d="M0 6C0 2.68629 2.68629 0 6 0H74C77.3137 0 80 2.68629 80 6V42C80 45.3137 77.3137 48 74 48H6C2.68629 48 0 45.3137 0 42V6Z" fill="#3B82F6"/>
<path d="M27.4716 21.5625C27.4186 21.0663 27.1951 20.6799 26.8011 20.4034C26.411 20.1269 25.9034 19.9886 25.2784 19.9886C24.839 19.9886 24.4621 20.0549 24.1477 20.1875C23.8333 20.3201 23.5928 20.5 23.4261 20.7273C23.2595 20.9545 23.1742 21.214 23.1705 21.5057C23.1705 21.7481 23.2254 21.9583 23.3352 22.1364C23.4489 22.3144 23.6023 22.4659 23.7955 22.5909C23.9886 22.7121 24.2027 22.8144 24.4375 22.8977C24.6723 22.9811 24.9091 23.0511 25.1477 23.108L26.2386 23.3807C26.678 23.483 27.1004 23.6212 27.5057 23.7955C27.9148 23.9697 28.2803 24.1894 28.6023 24.4545C28.928 24.7197 29.1856 25.0398 29.375 25.4148C29.5644 25.7898 29.6591 26.2292 29.6591 26.733C29.6591 27.4148 29.4848 28.0152 29.1364 28.5341C28.7879 29.0492 28.2841 29.4527 27.625 29.7443C26.9697 30.0322 26.1761 30.1761 25.2443 30.1761C24.339 30.1761 23.553 30.036 22.8864 29.7557C22.2235 29.4754 21.7045 29.0663 21.3295 28.5284C20.9583 27.9905 20.7576 27.3352 20.7273 26.5625H22.8011C22.8314 26.9678 22.9564 27.3049 23.1761 27.5739C23.3958 27.8428 23.6818 28.0436 24.0341 28.1761C24.3902 28.3087 24.7879 28.375 25.2273 28.375C25.6856 28.375 26.0871 28.3068 26.4318 28.1705C26.7803 28.0303 27.053 27.8371 27.25 27.5909C27.447 27.3409 27.5473 27.0492 27.5511 26.7159C27.5473 26.4129 27.4583 26.1629 27.2841 25.9659C27.1098 25.7652 26.8655 25.5985 26.5511 25.4659C26.2405 25.3295 25.8769 25.2083 25.4602 25.1023L24.1364 24.7614C23.178 24.5152 22.4205 24.142 21.8636 23.642C21.3106 23.1383 21.0341 22.4697 21.0341 21.6364C21.0341 20.9508 21.2197 20.3504 21.5909 19.8352C21.9659 19.3201 22.4754 18.9205 23.1193 18.6364C23.7633 18.3485 24.4924 18.2045 25.3068 18.2045C26.1326 18.2045 26.8561 18.3485 27.4773 18.6364C28.1023 18.9205 28.5928 19.3163 28.9489 19.8239C29.3049 20.3277 29.4886 20.9072 29.5 21.5625H27.4716ZM35.3111 30.1705C34.4361 30.1705 33.6804 29.9886 33.044 29.625C32.4115 29.2576 31.9247 28.7386 31.5838 28.0682C31.2429 27.3939 31.0724 26.6004 31.0724 25.6875C31.0724 24.7898 31.2429 24.0019 31.5838 23.3239C31.9285 22.642 32.4096 22.1117 33.027 21.733C33.6444 21.3504 34.3698 21.1591 35.2031 21.1591C35.741 21.1591 36.2486 21.2462 36.7259 21.4205C37.2069 21.5909 37.6312 21.8561 37.9986 22.2159C38.3698 22.5758 38.6615 23.0341 38.8736 23.5909C39.0857 24.1439 39.1918 24.803 39.1918 25.5682V26.1989H32.0384V24.8125H37.2202C37.2164 24.4186 37.1312 24.0682 36.9645 23.7614C36.7978 23.4508 36.5649 23.2064 36.2656 23.0284C35.9702 22.8504 35.6255 22.7614 35.2315 22.7614C34.8111 22.7614 34.4418 22.8636 34.1236 23.0682C33.8054 23.2689 33.5573 23.5341 33.3793 23.8636C33.205 24.1894 33.116 24.5473 33.1122 24.9375V26.1477C33.1122 26.6553 33.205 27.0909 33.3906 27.4545C33.5762 27.8144 33.8357 28.0909 34.169 28.2841C34.5024 28.4735 34.8925 28.5682 35.3395 28.5682C35.6387 28.5682 35.9096 28.5265 36.152 28.4432C36.3944 28.3561 36.6046 28.2292 36.7827 28.0625C36.9607 27.8958 37.0952 27.6894 37.1861 27.4432L39.1065 27.6591C38.9853 28.1667 38.7543 28.6098 38.4134 28.9886C38.0762 29.3636 37.6444 29.6553 37.1179 29.8636C36.5914 30.0682 35.9891 30.1705 35.3111 30.1705ZM42.9886 24.8864V30H40.9318V21.2727H42.8977V22.7557H43C43.2008 22.267 43.5208 21.8788 43.9602 21.5909C44.4034 21.303 44.9508 21.1591 45.6023 21.1591C46.2045 21.1591 46.7292 21.2879 47.1761 21.5455C47.6269 21.803 47.9754 22.1761 48.2216 22.6648C48.4716 23.1534 48.5947 23.7462 48.5909 24.4432V30H46.5341V24.7614C46.5341 24.178 46.3826 23.7216 46.0795 23.392C45.7803 23.0625 45.3655 22.8977 44.8352 22.8977C44.4754 22.8977 44.1553 22.9773 43.875 23.1364C43.5985 23.2917 43.3807 23.517 43.2216 23.8125C43.0663 24.108 42.9886 24.4659 42.9886 24.8864ZM53.9205 30.1534C53.2348 30.1534 52.6212 29.9773 52.0795 29.625C51.5379 29.2727 51.1098 28.7614 50.7955 28.0909C50.4811 27.4205 50.3239 26.6061 50.3239 25.6477C50.3239 24.678 50.483 23.8598 50.8011 23.1932C51.1231 22.5227 51.5568 22.017 52.1023 21.6761C52.6477 21.3314 53.2557 21.1591 53.9261 21.1591C54.4375 21.1591 54.858 21.2462 55.1875 21.4205C55.517 21.5909 55.7784 21.7973 55.9716 22.0398C56.1648 22.2784 56.3144 22.5038 56.4205 22.7159H56.5057V18.3636H58.5682V30H56.5455V28.625H56.4205C56.3144 28.8371 56.161 29.0625 55.9602 29.3011C55.7595 29.536 55.4943 29.7367 55.1648 29.9034C54.8352 30.0701 54.4205 30.1534 53.9205 30.1534ZM54.4943 28.4659C54.9299 28.4659 55.3011 28.3485 55.608 28.1136C55.9148 27.875 56.1477 27.5436 56.3068 27.1193C56.4659 26.6951 56.5455 26.2008 56.5455 25.6364C56.5455 25.072 56.4659 24.5814 56.3068 24.1648C56.1515 23.7481 55.9205 23.4242 55.6136 23.1932C55.3106 22.9621 54.9375 22.8466 54.4943 22.8466C54.036 22.8466 53.6534 22.9659 53.3466 23.2045C53.0398 23.4432 52.8087 23.7727 52.6534 24.1932C52.4981 24.6136 52.4205 25.0947 52.4205 25.6364C52.4205 26.1818 52.4981 26.6686 52.6534 27.0966C52.8125 27.5208 53.0455 27.8561 53.3523 28.1023C53.6629 28.3447 54.0436 28.4659 54.4943 28.4659Z" fill="white"/>
</svg>
