<svg width="40" height="40" viewBox="0 0 40 40" fill="none" xmlns="http://www.w3.org/2000/svg">
<circle cx="20" cy="20" r="20" fill="#2F80ED" fill-opacity="0.16"/>
<path d="M26.3454 12.26C24.8654 11.05 23.0354 10.25 21.0254 10.05V12.07C22.4854 12.25 23.8154 12.83 24.9254 13.69L26.3454 12.26ZM27.9554 19H29.9754C29.7754 16.99 28.9754 15.16 27.7654 13.68L26.3354 15.1C27.1954 16.21 27.7754 17.54 27.9554 19ZM26.3354 24.9L27.7654 26.33C28.9754 24.85 29.7754 23.01 29.9754 21.01H27.9554C27.7754 22.46 27.1954 23.79 26.3354 24.9ZM21.0254 27.93V29.9501C23.0354 29.7501 24.8654 28.95 26.3454 27.74L24.9154 26.31C23.8154 27.17 22.4854 27.75 21.0254 27.93ZM23.6154 18.59L21.0254 21.17V15H19.0254V21.17L16.4354 18.58L15.0254 20L20.0254 25L25.0254 20L23.6154 18.59ZM19.0254 27.93V29.9501C13.9754 29.4501 10.0254 25.19 10.0254 20C10.0254 14.81 13.9754 10.55 19.0254 10.05V12.07C15.0754 12.56 12.0254 15.92 12.0254 20C12.0254 24.08 15.0754 27.44 19.0254 27.93Z" fill="#2F80ED"/>
</svg>
