<svg width="24" height="24" viewBox="0 0 24 24" fill="none" xmlns="http://www.w3.org/2000/svg">
<path d="M3.8169 16.3529V15.7794C3.8169 15.4794 3.96213 15.1971 4.18906 15.0647C5.7231 14.1735 7.47499 13.7059 9.26319 13.7059C9.29042 13.7059 9.30858 13.7059 9.33581 13.7147C9.42658 13.0971 9.60812 12.5059 9.87136 11.9676C9.67166 11.95 9.47196 11.9412 9.26319 11.9412C7.06652 11.9412 5.01508 12.5324 3.26319 13.5471C2.4644 14.0059 2.00146 14.8706 2.00146 15.7794V18.1176H10.4069C10.0257 17.5882 9.72612 16.9882 9.52643 16.3529H3.8169Z" fill="#9CA3AF"/>
<path d="M9.26319 11.0588C11.2692 11.0588 12.8941 9.47941 12.8941 7.52941C12.8941 5.57941 11.2692 4 9.26319 4C7.25714 4 5.63233 5.57941 5.63233 7.52941C5.63233 9.47941 7.25714 11.0588 9.26319 11.0588ZM9.26319 5.76471C10.2617 5.76471 11.0786 6.55882 11.0786 7.52941C11.0786 8.5 10.2617 9.29412 9.26319 9.29412C8.2647 9.29412 7.44776 8.5 7.44776 7.52941C7.44776 6.55882 8.2647 5.76471 9.26319 5.76471Z" fill="#9CA3AF"/>
<path d="M19.0211 14.5882C19.0211 14.3941 18.9939 14.2176 18.9667 14.0324L20.0015 13.1412L19.0937 11.6147L17.7776 12.0471C17.4871 11.8088 17.1603 11.6235 16.7972 11.4912L16.5249 10.1765H14.7095L14.4372 11.4912C14.0741 11.6235 13.7473 11.8088 13.4568 12.0471L12.1406 11.6147L11.2329 13.1412L12.2677 14.0324C12.2405 14.2176 12.2133 14.3941 12.2133 14.5882C12.2133 14.7824 12.2405 14.9588 12.2677 15.1441L11.2329 16.0353L12.1406 17.5618L13.4568 17.1294C13.7473 17.3676 14.0741 17.5529 14.4372 17.6853L14.7095 19H16.5249L16.7972 17.6853C17.1603 17.5529 17.4871 17.3676 17.7776 17.1294L19.0937 17.5618L20.0015 16.0353L18.9667 15.1441C18.9939 14.9588 19.0211 14.7824 19.0211 14.5882ZM15.6172 16.3529C14.6187 16.3529 13.8018 15.5588 13.8018 14.5882C13.8018 13.6176 14.6187 12.8235 15.6172 12.8235C16.6157 12.8235 17.4326 13.6176 17.4326 14.5882C17.4326 15.5588 16.6157 16.3529 15.6172 16.3529Z" fill="#9CA3AF"/>
</svg>
